<svg xmlns="http://www.w3.org/2000/svg" xmlns:xlink="http://www.w3.org/1999/xlink" width="431.036" height="709.36" viewBox="0 0 431.036 709.36">
  <defs>
    <style>
      .cls-1 {
        fill: #ff6d52;
      }

      .cls-2 {
        fill: #222;
      }

      .cls-3 {
        fill: #020202;
      }

      .cls-4 {
        fill: #a5a5a5;
      }

      .cls-5 {
        fill: #4e4e4e;
      }

      .cls-6 {
        fill: #fff;
      }

      .cls-7 {
        filter: url(#Tracciato_3);
      }

      .cls-8 {
        filter: url(#Tracciato_15);
      }
    </style>
    <filter id="Tracciato_15" x="247.348" y="120.311" width="183.688" height="217.488" filterUnits="userSpaceOnUse">
      <feOffset input="SourceAlpha"/>
      <feGaussianBlur stdDeviation="30" result="blur"/>
      <feFlood flood-opacity="0.078"/>
      <feComposite operator="in" in2="blur"/>
      <feComposite in="SourceGraphic"/>
    </filter>
    <filter id="Tracciato_3" x="0" y="0" width="430.785" height="709.36" filterUnits="userSpaceOnUse">
      <feOffset input="SourceAlpha"/>
      <feGaussianBlur stdDeviation="30" result="blur-2"/>
      <feFlood flood-opacity="0.078"/>
      <feComposite operator="in" in2="blur-2"/>
      <feComposite in="SourceGraphic"/>
    </filter>
  </defs>
  <g id="Pixel_front" data-name="Pixel front" transform="translate(89.999 90)">
    <g id="Raggruppa_1" data-name="Raggruppa 1" transform="translate(0.001)">
      <g class="cls-8" transform="matrix(1, 0, 0, 1, -90, -90)">
        <path id="Tracciato_15-2" data-name="Tracciato 15" class="cls-1" d="M262.649,127.24A2.416,2.416,0,0,1,265,129.7v32.576a2.416,2.416,0,0,1-2.356,2.456h-.862l-.47-37.488Z" transform="translate(76.03 83.07)"/>
      </g>
      <g class="cls-7" transform="matrix(1, 0, 0, 1, -90, -90)">
        <path id="Tracciato_3-2" data-name="Tracciato 3" class="cls-2" d="M35.811,529.36c-19.518,0-35.338-16.5-35.338-36.845C-.442,283.726.2,160.7.483,93.838V92.808C.6,65.069.644,47.139.483,36.845.472,16.5,16.293,0,35.811,0h177.28c19.518,0,35.338,16.5,35.338,36.845-.406,83.285-.593,120.733,0,155.335a2.416,2.416,0,0,1,2.356,2.456V262.2a2.416,2.416,0,0,1-2.356,2.457V492.514c0,20.35-15.82,36.845-35.338,36.845Z" transform="translate(90 90)"/>
      </g>
    </g>
    <g id="body" transform="translate(1.848 1.91)">
      <path id="Tracciato_15-3" data-name="Tracciato 15" class="cls-3" d="M211.862-461.38H37.146a36.3,36.3,0,0,1-14.264-3.213A32.891,32.891,0,0,1,12.04-472.6a38.376,38.376,0,0,1-9.326-25.747c-.84-192.5-.349-309.867-.055-379.991.153-36.482.245-58.505.055-70.447a42.541,42.541,0,0,1,2.834-15.025,35.155,35.155,0,0,1,7.361-11.585,34.18,34.18,0,0,1,24.24-10.356h174.72c.188,0,.372,0,.554,0a32.207,32.207,0,0,1,13.748,3,32.6,32.6,0,0,1,10.7,8.074,37.038,37.038,0,0,1,6.949,11.786,40.863,40.863,0,0,1,2.477,14.11c-.472,86.289-.349,357.641,0,450.44a42.611,42.611,0,0,1-2.3,14.081,34.707,34.707,0,0,1-6.694,11.585C231.111-465.659,222.313-461.752,211.862-461.38Z" transform="translate(-1.846 986.156)"/>
      <path id="Tracciato_16" data-name="Tracciato 16" class="cls-4" d="M212.008-461.63c10.335-.369,19.03-4.229,25.143-11.161a34.324,34.324,0,0,0,6.617-11.451,42.2,42.2,0,0,0,2.277-13.948c-.349-92.8-.472-364.153,0-450.442a40.42,40.42,0,0,0-2.453-13.972,36.609,36.609,0,0,0-6.873-11.657,32.186,32.186,0,0,0-10.567-7.978,31.814,31.814,0,0,0-13.577-2.96c-.18,0-.361,0-.541,0H37.3a33.786,33.786,0,0,0-23.95,10.232,34.744,34.744,0,0,0-7.276,11.455A42.136,42.136,0,0,0,3.268-948.63c.19,11.947.1,33.971-.055,70.448-.294,70.124-.785,187.488.055,379.989a37.972,37.972,0,0,0,9.224,25.478,32.506,32.506,0,0,0,10.711,7.91,35.9,35.9,0,0,0,14.1,3.176h174.7m.013.805H37.293c-21.3-.57-34.83-17.252-34.83-37.369-1.282-293.817.551-415.819,0-450.438.3-22.244,15.572-37,34.83-37.369H212.02c.185,0,.37,0,.554,0,20.3,0,34.275,17.437,34.275,37.372-.472,86.213-.345,358.734,0,450.438C246.85-478.077,234.207-461.61,212.02-460.825Z" transform="translate(-1.998 986.004)"/>
    </g>
    <path id="camera" class="cls-5" d="M51.845-958.565A2.072,2.072,0,0,1,50-960.809a2.073,2.073,0,0,1,1.842-2.243H75.974a2.071,2.071,0,0,1,1.842,2.243,2.073,2.073,0,0,1-1.842,2.243Z" transform="translate(60.695 986.046)"/>
    <path id="screen" class="cls-6" d="M205.681,565.286H24.558A24.537,24.537,0,0,1,0,540.726V121.56A24.539,24.539,0,0,1,24.558,97H205.681a24.539,24.539,0,0,1,24.558,24.56V540.726a24.537,24.537,0,0,1-24.558,24.558Z" transform="translate(9.013 -58.923)"/>
    <path id="Tracciato_14" data-name="Tracciato 14" class="cls-5" d="M3.783,0A3.783,3.783,0,1,1,0,3.783,3.783,3.783,0,0,1,3.783,0Z" transform="translate(64.299 21.529)"/>
  </g>
</svg>
